<svg xmlns="http://www.w3.org/2000/svg">
<defs>
<clipPath id="clip0_1_625">
<rect width="234" height="80" fill="white"/>
</clipPath>


    <clipPath id="a">
      <path d="M0 0h20v20H0z"/>
    </clipPath>
</defs>
<symbol id="arrow1" viewBox="0 0 6 11">
  <path fill-rule="evenodd" d="m5.761 5.602-4.609 4.481L0 8.963l4.033-3.921L0 1.12 1.152 0l4.61 4.482a.781.781 0 0 1 0 1.12Z" clip-rule="evenodd"/>
</symbol>
<symbol id="close" viewBox="0 0 8 8">
  <path d="m4.95 3.536 2.121 2.12-1.414 1.415L3.536 4.95 1.414 7.07 0 5.657l2.121-2.121L0 1.414 1.414 0l2.122 2.121L5.656 0l1.415 1.414L4.95 3.536Z"/>
</symbol>
<symbol id="copiryte" viewBox="0 0 18 20">
  <path fill-rule="evenodd" d="M4.754 4.046A43.95 43.95 0 0 0 8.4 4.35v3.286l-3.564.156-.082-3.746Zm12.304-.068v3.28l-8 .35V4.375c2.667.079 5.334-.07 8-.398Zm.928 3.969c0-1.605.003-3.21 0-4.816-4.657.597-9.743.483-15.27-.487l1 17.356C8.014 16.889 12.83 15.484 18 15.245l-.002-.604h-.94c-.5 0-1.345.109-1.54.124a22.3 22.3 0 0 0-1.827.221c-1.544.25-3.088.658-4.632 1.182V8.263l5.922-.258c.875-.038 1.67-.058 2.505-.058h.5ZM2.23 15.122l-.3-13.72c4.947.676 9.531.862 13.319-.03l-.156 1.686.606.02.322-2.542C10.68 1.3 5.34 1.064 0 0l.89 17.356 2.623-.876-.095-1.656-1.189.298Zm6.17 1.277c-1.115.402-2.23.861-3.346 1.366L4.85 8.446l3.55-.154v8.107Z" clip-rule="evenodd"/>
</symbol>
<symbol id="inn" viewBox="0 0 16 20">
  <path d="M15.498 5.779 10.341.499a.59.59 0 0 0-.418-.177H2.22C1.177.322.33 1.191.33 2.26v15.48c0 1.068.848 1.937 1.891 1.937h11.56c1.043 0 1.891-.869 1.891-1.937V6.206a.612.612 0 0 0-.173-.427Zm-4.984-3.392 3.14 3.215h-3.14V2.387Zm3.266 16.08H2.22a.72.72 0 0 1-.71-.726V2.26c0-.4.319-.727.71-.727h7.112v4.674c0 .334.265.605.59.605h4.568v10.93a.72.72 0 0 1-.71.727Zm-1.555-8.095a.598.598 0 0 1-.59.604h-7.27a.598.598 0 0 1-.59-.605c0-.334.264-.604.59-.604h7.27c.326 0 .59.27.59.604Zm0 4.127a.598.598 0 0 1-.59.605h-7.27a.598.598 0 0 1-.59-.604c0-.335.264-.605.59-.605h7.27c.326 0 .59.27.59.604Z"/>
  <path d="M0 17.741V2.26C0 1.026.983 0 2.22 0h7.703a.914.914 0 0 1 .655.276l5.158 5.28a.93.93 0 0 1 .264.65v11.535C16 18.974 15.017 20 13.78 20H2.22C.984 20 0 18.974 0 17.741Zm1.182 0V2.26c0-.566.453-1.05 1.039-1.05h7.44v4.997c0 .169.13.282.262.282h4.896v11.253c0 .566-.454 1.05-1.04 1.05H2.221c-.586 0-1.04-.484-1.04-1.05ZM11.897 14.5a.273.273 0 0 0-.263-.283H4.365a.273.273 0 0 0-.262.283c0 .168.13.282.262.282h7.27a.273.273 0 0 0 .262-.282Zm0-4.128a.273.273 0 0 0-.263-.283H4.365a.273.273 0 0 0-.262.283c0 .168.13.282.262.282h7.27a.274.274 0 0 0 .262-.282Zm2.528-4.447h-4.24v-4.34l4.24 4.34Zm-3.583-.646h2.041l-2.04-2.09v2.09Zm1.712 9.22c0 .5-.399.928-.92.928H4.365a.923.923 0 0 1-.919-.927c0-.5.399-.927.92-.928h7.268c.521 0 .92.429.92.928Zm0-4.127a.924.924 0 0 1-.92.927H4.365a.924.924 0 0 1-.919-.927c0-.5.399-.927.92-.928h7.268c.521 0 .92.429.92.928ZM.657 17.742c0 .902.715 1.613 1.564 1.613h11.558c.849 0 1.564-.711 1.564-1.614V6.206a.293.293 0 0 0-.082-.204L10.104.722a.26.26 0 0 0-.18-.077H2.221c-.849 0-1.564.711-1.564 1.614V17.74Zm1.182 0c0 .235.185.403.382.403h11.558a.395.395 0 0 0 .382-.404V7.134H9.923a.925.925 0 0 1-.92-.928V1.854H2.22a.395.395 0 0 0-.382.405V17.74Z"/>
</symbol>
<symbol id="logo1" viewBox="0 0 234 80">
<g clip-path="url(#clip0_1_625)">
<path fill-rule="evenodd" clip-rule="evenodd" d="M19.0735 16.1838C23.9497 16.8055 28.8256 17.1893 33.7018 17.4015V30.5444L19.4017 31.1661L19.0735 16.1838ZM68.4349 15.9101V29.0336L36.3435 30.4293V17.5041C47.0411 17.8182 57.7381 17.2256 68.4349 15.9101ZM72.1589 31.7865C72.1589 25.3661 72.1705 18.9446 72.1568 12.5241C53.4764 14.9104 33.0688 14.4563 10.8996 10.5753L14.9059 80C32.1554 67.5544 51.4772 61.9346 72.214 60.9797L72.2079 58.5636H68.6945H68.435C66.4311 58.5636 63.0406 58.9995 62.2573 59.0607C59.8143 59.2515 57.3715 59.5501 54.9286 59.945C48.7337 60.9471 42.5384 62.576 36.3436 64.6734V33.0529L60.1034 32.0195C63.6129 31.867 66.8051 31.7865 70.1515 31.7865H72.0497H72.1589ZM8.94244 60.4863L7.73847 5.60921C27.5839 8.31228 45.9771 9.05564 61.1717 5.48931L60.5472 12.2324L62.9792 12.3126L64.2721 2.14519C42.8471 5.19971 21.424 4.25638 0 0L3.5716 69.4244L14.0936 65.9193L13.7108 59.2954L8.94244 60.4863ZM33.7018 65.597C29.2271 67.2055 24.7521 69.041 20.2775 71.0594L19.4596 33.786L33.7018 33.1666V65.597Z" fill="#00642E"/>
<path fill-rule="evenodd" clip-rule="evenodd" d="M84.9139 52.465H82.0184L78.6341 43.2386L75.2817 52.465H72.3365L77.3897 38.7646H79.8864L84.3025 50.7991L88.7411 38.7646H91.2378L96.2653 52.465H93.3702L89.9856 43.2386L86.6331 52.465H84.9139ZM51.0715 48.2397L54.8833 39.0102H58.3004V52.465H55.5868V43.6631L51.8413 52.465H50.0749L46.3418 43.6692V52.465H43.6164V39.0102H47.1113L51.0715 48.2397ZM159.218 48.2386L163.03 39.0102H166.447V52.465H163.734V43.6628L159.988 52.465H158.222L154.489 43.6689V52.465H151.764V39.0102H155.258L159.218 48.2386ZM142.93 51.5655L137.916 38.9875H140.836L144.512 48.1035L148.416 38.9875H151.339L143.633 56.8291H140.734L142.93 51.5655ZM128.343 48.1918L134.802 38.9875H137.306V52.465H134.557V43.2505L128.098 52.465H125.629V38.9875H128.343V48.1918ZM114.573 44.2978H120.787V38.9875H123.536V52.465H120.787V46.826H114.573V52.465H111.86V38.9875H114.573V44.2978ZM99.0037 46.7326C99.0646 47.0328 99.1491 47.3361 99.2724 47.5965C99.4949 48.096 99.8143 48.5321 100.215 48.9063C100.633 49.2968 101.113 49.5919 101.645 49.8047C102.181 50.0191 102.738 50.1236 103.315 50.1236C104.543 50.1236 105.596 49.7182 106.483 48.8737C106.836 48.5371 107.107 48.1197 107.32 47.6848L107.46 47.3982H110.355L110.043 48.1103C109.794 48.679 109.503 49.3019 109.146 49.8126C108.831 50.2635 108.416 50.6639 107.998 51.0198C107.342 51.5774 106.6 52.0008 105.788 52.294C104.977 52.587 104.132 52.7452 103.268 52.7452C102.011 52.7452 100.825 52.4436 99.7352 51.8179C98.6559 51.1981 97.8014 50.3447 97.1739 49.2753C96.5358 48.1871 96.227 47.0005 96.227 45.743C96.227 44.4897 96.5355 43.3103 97.1673 42.225C97.7925 41.1516 98.6494 40.2941 99.7263 39.6648C100.81 39.0322 101.987 38.7178 103.244 38.7178C104.307 38.7178 105.324 38.9443 106.283 39.399C107.246 39.8553 108.063 40.5044 108.734 41.3282C109.388 42.1302 109.83 43.0424 110.074 44.0547C110.217 44.7009 110.243 45.5379 110.274 46.1998L110.298 46.7326H99.0037ZM62.9531 48.1918L69.413 38.9875H71.9161V52.465H69.1675V43.2505L62.708 52.465H60.2394V38.9875H62.9531V48.1918ZM99.1523 44.1816H107.366C107.222 43.7749 107.009 43.3982 106.737 43.0475C106.323 42.5119 105.81 42.0963 105.201 41.7954C104.592 41.4946 103.948 41.3394 103.268 41.3394C102.595 41.3394 101.948 41.4734 101.34 41.7624C100.74 42.0484 100.242 42.4596 99.8317 42.9799C99.5414 43.349 99.3165 43.7514 99.1523 44.1816Z" fill="#95BF0B"/>
<path fill-rule="evenodd" clip-rule="evenodd" d="M44.1299 51.9557V39.5196H46.7718L50.9229 49.1943L51.0762 49.7909L51.2416 49.1714L55.2277 39.5196H57.787V51.9557H56.1004V41.1464L51.5007 51.9557H50.4159L45.8283 41.1464V51.9557H44.1299ZM152.277 51.9557V39.5196H154.918L159.071 49.1943L159.224 49.7909L159.388 49.1714L163.375 39.5196H165.934V51.9557H164.248V41.1464L159.648 51.9557H158.563L153.975 41.1464V51.9557H152.277ZM148.756 39.4967H150.56L143.295 56.3197H141.502L143.484 51.5699L138.672 39.4967H140.488L144.497 49.4397L148.756 39.4967ZM127.829 49.815L135.07 39.4967H136.793V51.9557H135.07V41.6256L127.829 51.9557H126.142V39.4967H127.829V49.815ZM114.06 44.8071H121.301V39.4967H123.023V51.9557H121.301V46.3166H114.06V51.9557H112.373V39.4967H114.06V44.8071ZM98.4608 44.691H108.029C107.903 43.9807 107.608 43.3303 107.145 42.7371C106.69 42.1442 106.119 41.6783 105.43 41.3394C104.744 40.9991 104.022 40.83 103.268 40.83C102.498 40.83 101.781 40.9882 101.118 41.3034C100.455 41.6195 99.8907 42.0736 99.4272 42.6665C98.9636 43.2512 98.6415 43.9269 98.4608 44.691ZM109.761 46.2232H98.4014C98.4885 46.8928 98.6216 47.4203 98.8027 47.8023C99.0461 48.3487 99.3994 48.8397 99.8629 49.277C100.326 49.706 100.856 50.0377 101.453 50.2771C102.05 50.5155 102.67 50.633 103.315 50.633C104.682 50.633 105.857 50.1695 106.838 49.241C107.209 48.8828 107.522 48.4373 107.782 47.9075H109.572C109.258 48.6254 108.975 49.163 108.724 49.5226C108.473 49.8819 108.119 50.251 107.664 50.633C107.074 51.1397 106.39 51.5339 105.613 51.8154C104.836 52.0956 104.054 52.2358 103.268 52.2358C102.082 52.2358 100.991 51.9495 99.9927 51.3771C98.9948 50.8032 98.2033 50.0174 97.6179 49.0193C97.0329 48.0217 96.7405 46.9289 96.7405 45.743C96.7405 44.5654 97.0312 43.4777 97.6121 42.4797C98.1934 41.4816 98.9849 40.6901 99.9868 40.1039C100.989 39.5196 102.074 39.2272 103.244 39.2272C104.234 39.2272 105.173 39.438 106.061 39.8585C106.949 40.2802 107.706 40.8769 108.335 41.6484C108.933 42.3826 109.345 43.22 109.572 44.164C109.65 44.5151 109.714 45.2014 109.761 46.2232ZM90.8784 39.274L95.5321 51.9557H93.7297L89.9832 41.7428L86.2723 51.9557H84.4227L89.0999 39.274H90.8784ZM79.5269 39.274L84.1806 51.9557H82.3778L78.6317 41.7428L74.9209 51.9557H73.0712L77.7485 39.274H79.5269ZM62.4397 49.815L69.681 39.4967H71.4027V51.9557H69.681V41.6256L62.4397 51.9557H60.753V39.4967H62.4397V49.815Z" fill="#95BF0B"/>
<path fill-rule="evenodd" clip-rule="evenodd" d="M179.567 48.443C178.659 50.0377 177.028 50.8928 175.28 50.8928C172.508 50.8928 170.202 48.6743 170.202 45.7854C170.202 42.989 172.322 40.7475 175.28 40.7475C175.863 40.7475 178.286 40.8398 179.567 43.3358H181.501C180.499 40.8398 178.239 39.199 175.28 39.199C170.831 39.199 168.478 42.7812 168.478 45.8086C168.478 49.1134 170.924 52.4413 175.28 52.4413C178.775 52.4413 180.616 50.3151 181.478 48.443H179.567ZM182.581 39.4994V41.0479H185.866V52.1407H187.59V41.0479H190.875V39.4994H182.581ZM192.351 56.5781H194.075V49.7834H194.121C194.564 50.5229 195.869 52.4413 198.967 52.4413C202.881 52.4413 205.793 49.6448 205.793 45.8779C205.793 42.6654 203.487 39.199 199.014 39.199C197.849 39.199 195.612 39.4764 194.028 41.6718H193.981V39.4994H192.351V56.5781ZM199.014 40.7475C201.856 40.7475 204.069 42.989 204.069 45.8547C204.069 48.7205 201.786 50.8928 198.967 50.8928C196.055 50.8928 193.981 48.6974 193.981 45.9009C193.981 43.0583 196.055 40.7475 199.014 40.7475ZM214.142 39.199C210.368 39.199 207.479 42.0647 207.479 45.8317C207.479 49.5986 210.391 52.4413 214.142 52.4413C217.893 52.4413 220.805 49.5986 220.805 45.8317C220.805 42.0647 217.916 39.199 214.142 39.199ZM214.142 40.7475C217.008 40.7475 219.081 42.9659 219.081 45.8317C219.081 48.6974 217.008 50.8928 214.142 50.8928C211.276 50.8928 209.203 48.6974 209.203 45.8317C209.203 42.9659 211.276 40.7475 214.142 40.7475ZM222.957 39.4994V52.1407H224.681L232.276 41.9261V52.1407H234V39.4994H232.276L224.681 49.7141V39.4994H222.957ZM224.937 35.0391C225.17 36.3333 226.149 37.951 228.478 37.951C230.808 37.951 231.786 36.3333 232.02 35.0391H230.552C230.365 36.1254 229.434 36.6337 228.478 36.6337C227.523 36.6337 226.591 36.1254 226.405 35.0391H224.937Z" fill="#00642E"/>
<path fill-rule="evenodd" clip-rule="evenodd" d="M82.6271 29.8459C82.2248 30.579 81.4532 30.6221 81.2033 30.6221C80.0945 30.6221 79.3988 29.8027 79.3988 28.7785C79.3988 27.8189 80.0511 26.9778 81.2033 26.9778C81.8336 26.9778 82.3447 27.2473 82.6271 27.7972H84.2576C83.8554 26.5034 82.7465 25.6194 81.2248 25.6194C78.975 25.6194 77.9535 27.3659 77.9535 28.7568C77.9535 30.2448 79.0185 31.9808 81.2793 31.9808C82.7794 31.9808 83.8119 31.1074 84.2576 29.8459H82.6271ZM84.819 25.8133V27.0858H86.2644V31.7866H87.71V27.0858H89.1558V25.8133H84.819ZM89.9889 33.7813H91.4342V31.1397H91.4562C92.0214 31.8515 92.7821 31.9808 93.2712 31.9808C95.1842 31.9808 96.293 30.4388 96.293 28.7999C96.293 26.8701 94.9124 25.6194 93.2712 25.6194C92.804 25.6194 91.8475 25.7597 91.3367 26.5896H91.3148V25.8133H89.9889V33.7813ZM93.1193 26.9778C94.3366 26.9778 94.8474 27.9914 94.8474 28.7891C94.8474 29.8459 94.0973 30.6221 93.0648 30.6221C92.0865 30.6221 91.3473 29.943 91.3473 28.7999C91.3473 27.754 92.0649 26.9778 93.1193 26.9778ZM100.18 25.6194C98.3327 25.6194 96.9849 27.0641 96.9849 28.8108C96.9849 30.5468 98.3433 31.9808 100.18 31.9808C102.017 31.9808 103.376 30.5468 103.376 28.8108C103.376 27.0641 102.028 25.6194 100.18 25.6194ZM100.18 26.9778C101.256 26.9778 101.93 27.8403 101.93 28.8108C101.93 29.781 101.246 30.6221 100.18 30.6221C99.1152 30.6221 98.4302 29.781 98.4302 28.8108C98.4302 27.8403 99.1043 26.9778 100.18 26.9778ZM104.372 25.8133V31.7866H105.817L108.491 27.9161V31.7866H109.937V25.8133H108.491L105.817 29.6842V25.8133H104.372ZM110.759 25.8133V27.0858H112.205V31.7866H113.65V27.0858H115.096V25.8133H110.759ZM121.94 29.436C121.973 29.2203 121.973 29.0156 121.973 28.7999C121.973 27.0209 120.712 25.6194 118.875 25.6194C116.701 25.6194 115.668 27.4739 115.668 28.8431C115.668 30.2122 116.69 31.9808 118.853 31.9808C119.136 31.9808 120.973 31.9591 121.777 30.0615H120.147C119.788 30.4928 119.266 30.6221 118.799 30.6221C118.027 30.6221 117.407 30.1692 117.223 29.436H121.94ZM117.201 28.1639C117.44 27.4521 118.081 26.9778 118.875 26.9778C119.614 26.9778 120.255 27.409 120.462 28.1639H117.201ZM126.229 25.8133H124.925L122.469 31.7866H124.077L125.577 27.754L127.077 31.7866H128.686L126.229 25.8133ZM129.443 25.8133V31.7866H132.182C133.345 31.7866 134.203 31.0642 134.203 29.8459C134.203 28.8322 133.584 27.9052 132.182 27.9052H130.888V25.8133H129.443ZM130.888 29.1773H132.03C132.617 29.1773 132.758 29.544 132.758 29.8459C132.758 30.5037 132.149 30.5142 132.03 30.5142H130.888V29.1773ZM135.222 25.8133V31.7866H136.667V29.2852H138.906V31.7866H140.352V25.8133H138.906V28.0128H136.667V25.8133H135.222ZM141.652 25.8133V31.7866H144.391C145.554 31.7866 146.413 31.0642 146.413 29.8459C146.413 28.8322 145.793 27.9052 144.391 27.9052H143.098V25.8133H141.652ZM143.098 29.1773H144.239C144.826 29.1773 144.967 29.544 144.967 29.8459C144.967 30.5037 144.359 30.5142 144.239 30.5142H143.098V29.1773ZM147.076 31.7866H148.522V25.8133H147.076V31.7866ZM155.832 29.436C155.865 29.2203 155.865 29.0156 155.865 28.7999C155.865 27.0209 154.605 25.6194 152.768 25.6194C150.594 25.6194 149.561 27.4739 149.561 28.8431C149.561 30.2122 150.583 31.9808 152.746 31.9808C153.028 31.9808 154.865 31.9591 155.669 30.0615H154.039C153.681 30.4928 153.159 30.6221 152.691 30.6221C151.92 30.6221 151.3 30.1692 151.115 29.436H155.832ZM151.094 28.1639C151.333 27.4521 151.974 26.9778 152.768 26.9778C153.507 26.9778 154.148 27.409 154.354 28.1639H151.094ZM164.016 25.8133L162.57 29.6411L161.19 25.8133H159.549L161.755 31.2259L160.646 33.7813H162.201L165.657 25.8133H164.016ZM170.36 29.8459C169.957 30.579 169.186 30.6221 168.936 30.6221C167.827 30.6221 167.132 29.8027 167.132 28.7785C167.132 27.8189 167.784 26.9778 168.936 26.9778C169.566 26.9778 170.077 27.2473 170.36 27.7972H171.99C171.588 26.5034 170.479 25.6194 168.957 25.6194C166.708 25.6194 165.686 27.3659 165.686 28.7568C165.686 30.2448 166.751 31.9808 169.012 31.9808C170.512 31.9808 171.545 31.1074 171.99 29.8459H170.36ZM176.247 25.8133H174.943L172.486 31.7866H174.095L175.595 27.754L177.095 31.7866H178.703L176.247 25.8133ZM183.406 25.8133L181.96 29.6411L180.58 25.8133H178.939L181.145 31.2259L180.036 33.7813H181.591L185.047 25.8133H183.406ZM185.891 25.8133V31.7866H187.337V27.0858H189.304V25.8133H185.891ZM190.148 25.8133V31.7866H191.594L194.268 27.9161V31.7866H195.713V25.8133H194.268L191.594 29.6842V25.8133H190.148Z" fill="#00642E"/>
</g>

</symbol>
<symbol id="mail" viewBox="0 0 20 17">
  <path d="M0 16.667V0h20v16.667H0Zm10-7.292L2 4.167v10.416h16V4.167l-8 5.208Zm0-2.083 8-5.209H2l8 5.209ZM2 4.167V2.083v12.5V4.167Z"/>
</symbol>
<symbol id="map" viewBox="0 0 20 20">
  <g clip-path="url(#a)">
    <path d="M10 12c2.206 0 4-1.794 4-4s-1.794-4-4-4-4 1.794-4 4 1.794 4 4 4Zm0-6c1.103 0 2 .897 2 2s-.897 2-2 2-2-.897-2-2 .897-2 2-2Z"/>
    <path d="M9.42 19.814a1 1 0 0 0 1.16 0C10.884 19.6 18.029 14.44 18 8c0-4.411-3.589-8-8-8-4.41 0-8 3.589-8 7.995-.029 6.445 7.116 11.604 7.42 11.82ZM10 2c3.309 0 6 2.69 6 6.005.02 4.438-4.388 8.423-6 9.73C8.389 16.427 3.98 12.441 4 8c0-3.31 2.691-6 6-6Z"/>
  </g>
  
</symbol>
<symbol id="ogrn" viewBox="0 0 20 20">
  <path d="M16.916 2.547c-2.04-.34-3.917-1.375-4.855-1.961A3.88 3.88 0 0 0 10 0a3.88 3.88 0 0 0-2.061.586c-.938.586-2.816 1.621-4.855 1.96C1.877 2.749 1 3.72 1 4.857V9.57c0 1.558.469 3.076 1.394 4.514.724 1.124 1.726 2.198 2.98 3.193 2.109 1.673 4.196 2.545 4.284 2.582L10 20l.342-.141c.088-.037 2.175-.909 4.284-2.582 1.254-.995 2.256-2.07 2.98-3.194C18.53 12.647 19 11.129 19 9.57V4.855c0-1.136-.877-2.107-2.084-2.308Zm.402 7.023c0 2.322-1.263 4.507-3.753 6.493A18.854 18.854 0 0 1 10 18.276c-1.488-.703-7.318-3.771-7.318-8.706V4.855c0-.379.294-.703.699-.77 2.342-.39 4.45-1.547 5.497-2.203A2.12 2.12 0 0 1 10 1.563c.4 0 .787.11 1.121.32 1.048.655 3.155 1.812 5.498 2.202.405.068.699.391.699.77V9.57Z"/>
  <path d="M8.759 10.733 6.074 8.198 5 9.355 8.86 13 15 6.055 13.827 5 8.76 10.733Z"/>
</symbol>
<symbol id="phone" viewBox="0 0 19 19">
  <path d="m17 12.677-3.581-1.433-1.062 1.77a1 1 0 0 1-1.3.383 12 12 0 0 1-5.453-5.455 1 1 0 0 1 .381-1.3l1.77-1.062L6.323 2H3a1 1 0 0 0-1 .98 15 15 0 0 0 14.02 14.019A.998.998 0 0 0 17 16v-3.323ZM19 16a3 3 0 0 1-3.06 2.998A17 17 0 0 1 0 3a3 3 0 0 1 3-3h4a1 1 0 0 1 .929.629l2 5a1 1 0 0 1-.414 1.228L7.842 7.86a9.996 9.996 0 0 0 3.297 3.297l1.004-1.672.05-.076a1 1 0 0 1 1.178-.338l5 2A1 1 0 0 1 19 12v4Z"/>
</symbol>
<symbol id="time" viewBox="0 0 20 20">
  <path d="M10 20C4.477 20 0 15.523 0 10S4.477 0 10 0s10 4.477 10 10-4.477 10-10 10Zm0-2a8 8 0 1 0 0-16.001A8 8 0 0 0 10 18Zm1-8h4v2H9V5h2v5Z"/>
</symbol>
</svg>