<svg xmlns="http://www.w3.org/2000/svg" width="28" height="28" fill="currentColor" viewBox="0 0 28 28">
  <path d="M27.005 0H.995A1 1 0 0 0 0 1.004v25.992A1 1 0 0 0 .995 28h26.01A1 1 0 0 0 28 26.996V1.004A1 1 0 0 0 27.005 0Zm-.996 25.992h-3.877c.414-.71.664-1.446.716-2.207.082-1.395-.464-2.43-.948-3.343-.405-.767-.756-1.43-.695-2.221.077-.943.702-1.881 1.857-2.788L21.84 13.85c-1.611 1.265-2.492 2.68-2.618 4.212-.106 1.38.44 2.413.924 3.326.41.777.765 1.449.716 2.27-.052.777-.483 1.561-1.244 2.335H15.36c.408-.706.654-1.44.705-2.2.094-1.4-.453-2.439-.936-3.355-.403-.766-.751-1.428-.69-2.227.067-.936.685-1.87 1.841-2.777l-1.223-1.584c-1.619 1.27-2.495 2.69-2.603 4.212-.105 1.375.439 2.407.917 3.317.41.778.764 1.45.708 2.279-.053.786-.479 1.57-1.228 2.335H8.58c.415-.71.665-1.446.717-2.207.082-1.395-.465-2.43-.948-3.342-.406-.768-.757-1.431-.696-2.222.077-.943.703-1.881 1.858-2.788L8.29 13.85c-1.611 1.265-2.492 2.68-2.62 4.212-.105 1.38.443 2.413.925 3.326.41.777.766 1.449.717 2.27-.052.777-.484 1.561-1.244 2.335H1.99V2.008h24.018v23.984Z"/>
</svg>
