<svg xmlns="http://www.w3.org/2000/svg" width="18" height="20" fill="currentColor" viewBox="0 0 18 20">
  <path fill-rule="evenodd" d="M4.754 4.046A43.95 43.95 0 0 0 8.4 4.35v3.286l-3.564.156-.082-3.746Zm12.304-.068v3.28l-8 .35V4.375c2.667.079 5.334-.07 8-.398Zm.928 3.969c0-1.605.003-3.21 0-4.816-4.657.597-9.743.483-15.27-.487l1 17.356C8.014 16.889 12.83 15.484 18 15.245l-.002-.604h-.94c-.5 0-1.345.109-1.54.124a22.3 22.3 0 0 0-1.827.221c-1.544.25-3.088.658-4.632 1.182V8.263l5.922-.258c.875-.038 1.67-.058 2.505-.058h.5ZM2.23 15.122l-.3-13.72c4.947.676 9.531.862 13.319-.03l-.156 1.686.606.02.322-2.542C10.68 1.3 5.34 1.064 0 0l.89 17.356 2.623-.876-.095-1.656-1.189.298Zm6.17 1.277c-1.115.402-2.23.861-3.346 1.366L4.85 8.446l3.55-.154v8.107Z" clip-rule="evenodd"/>
</svg>
