<svg xmlns="http://www.w3.org/2000/svg" width="30" height="30" fill="currentColor" viewBox="0 0 30 30">
  <path d="M29.004 23.555h-2.637v-8.411l1.044.57a.876.876 0 0 0 1.192-.352.88.88 0 0 0-.35-1.192L2.47.108a.878.878 0 1 0-.84 1.542l1.886 1.028v10.329H.879a.879.879 0 0 0-.879.879V29.12c0 .485.393.879.879.879h28.125a.879.879 0 0 0 .879-.879v-4.687a.879.879 0 0 0-.88-.88Zm-4.395 0h-1.758v-2.637a.879.879 0 0 0-.879-.879h-2.636v-8.73l5.273 2.876v9.37Zm-8.789-3.516v-2.637a.879.879 0 0 0-.879-.879h-2.636v-9.05l5.273 2.877v9.69H15.82ZM5.273 3.64l5.274 2.875v10.01H8.789v-2.637a.879.879 0 0 0-.88-.88H5.274V3.639Zm22.852 24.603H1.758V14.766H7.03v2.636c0 .486.394.88.879.88h6.152v2.636a.88.88 0 0 0 .88.879h6.151v2.637c0 .485.394.878.88.878h6.152v2.93Z"/>
</svg>
