<svg xmlns="http://www.w3.org/2000/svg" width="80" height="78" fill="currentColor" viewBox="0 0 80 78">
  <path d="M26.834 43.345a6.166 6.166 0 0 1 6.094 5.228h15.363a2 2 0 0 1 2 2v1.17a2.164 2.164 0 0 0 4.328 0v-1.17a2 2 0 0 1 2-2h10.758a2 2 0 1 1 0 4h-8.815a6.164 6.164 0 0 1-12.214 0h-15.35a2 2 0 0 1-2-2V49.51a2.164 2.164 0 1 0-4.328 0v1.064a2 2 0 0 1-2 2H11.935a2 2 0 0 1 0-4h8.806a6.165 6.165 0 0 1 6.093-5.228Z"/>
  <path d="M32.376 63.492a6.165 6.165 0 0 1 5.229-6.094V42.036a2 2 0 0 1 2-2h1.168a2.164 2.164 0 0 0 0-4.328h-1.169a2 2 0 0 1-2-2V18.622a2 2 0 1 1 4 0v13.142a6.163 6.163 0 0 1 0 12.213v15.35a2 2 0 0 1-2 2H38.54a2.164 2.164 0 0 0 0 4.329h1.065a2 2 0 0 1 2 2v6.227h35.708a2 2 0 0 1 0 4H2a2 2 0 1 1 0-4h35.605v-4.298a6.165 6.165 0 0 1-5.229-6.093Z"/>
  <path d="M66.118 75.884v-38.4l-26.453-16.5-25.952 16.489v38.411a2 2 0 0 1-4 0v-39.51a2 2 0 0 1 .927-1.687l27.944-17.754.124-.072a2 2 0 0 1 2.007.063l28.462 17.754a2 2 0 0 1 .94 1.696v39.51a2 2 0 0 1-4 0Z"/>
  <path d="M38.725 5.51a2 2 0 0 1 1.984.07l37.657 23.337a2 2 0 0 1 .653 2.742l-5.1 8.349a2.001 2.001 0 0 1-2.776.647l-4.095-2.59a2 2 0 0 1 2.139-3.38l2.377 1.503 3.006-4.919L39.657 9.633 4.752 31.277l3.06 5.1 2.873-1.718a2 2 0 0 1 2.055 3.431l-4.588 2.748a2 2 0 0 1-2.742-.688l-5.1-8.505a2 2 0 0 1 .661-2.728L38.602 5.58l.123-.07Z"/>
  <path d="M52.708 16.613V2a2 2 0 0 1 2-2h11.404a2 2 0 0 1 2 2v21.686a2 2 0 0 1-4 0V4h-7.404v12.613a2 2 0 0 1-4 0Z"/>
</svg>
