<svg xmlns="http://www.w3.org/2000/svg" width="26" height="23" fill="currentColor" viewBox="0 0 26 23">
  <path d="M25.199 5.197 13.223.464a.597.597 0 0 0-.447 0L.802 5.197a.605.605 0 0 0-.375.549V21.52c0 .327.268.592.599.592h23.95a.603.603 0 0 0 .424-.174.588.588 0 0 0 .175-.418V5.746a.594.594 0 0 0-.375-.55ZM21.183 20.93H13.6v-8.283h7.584v8.283Zm0-9.466H13.6V5.436l7.584 2.998v3.03Zm-8.782 0H4.817V8.435L12.4 5.436v6.028Zm-7.584 1.183H12.4v8.283H4.817v-8.283Zm19.56 8.283H22.38V8.033a.595.595 0 0 0-.375-.549l-8.783-3.47a.597.597 0 0 0-.447 0l-8.782 3.47a.605.605 0 0 0-.375.549V20.93H1.623V6.146L13 1.65l11.377 4.496V20.93Z"/>
  <path d="M25.148 5.749a.178.178 0 0 0-.112-.164L13.066.855l-.004-.001a.167.167 0 0 0-.124 0h-.004L.963 5.584v.001a.178.178 0 0 0-.112.164V21.52c0 .094.078.171.174.171h23.95c.046 0 .09-.018.123-.05a.17.17 0 0 0 .05-.12V5.748Zm-.346.112v15.49h-2.847V8.035a.179.179 0 0 0-.112-.163l-8.777-3.47h-.004a.167.167 0 0 0-.124 0h-.004L4.156 7.873h.001a.178.178 0 0 0-.112.163v13.315H1.198V5.861L13 1.197l11.802 4.664Zm-11.975 6.366v9.123H4.391v-9.123h8.436Zm8.782 0v9.123h-8.436v-9.123h8.436ZM2.049 6.43v14.078h1.144V8.029a1.014 1.014 0 0 1 .64-.933l.003-.003 8.782-3.47c.245-.098.518-.098.763 0l8.783 3.47.004.003a1.013 1.013 0 0 1 .639.934v12.479h1.144V6.43L13 2.103 2.05 6.431Zm11.976 14.078h6.732v-7.44h-6.732v7.44Zm-8.782 0h6.732v-7.44H5.243v7.44Zm7.584-8.624H4.391V8.15l8.436-3.336v7.07Zm8.782-3.736v3.736h-8.436v-7.07l8.436 3.334Zm-7.584 2.895h6.732V8.717l-6.732-2.661v4.986ZM5.243 8.72v2.323h6.732V6.058L5.243 8.72ZM26 21.52c0 .268-.108.526-.3.716a1.03 1.03 0 0 1-.725.296H1.025A1.019 1.019 0 0 1 0 21.521V5.742l.012-.15a1.015 1.015 0 0 1 .627-.784l.004-.002L12.618.073c.245-.098.518-.097.763 0l11.976 4.733.004.002a1.014 1.014 0 0 1 .639.934v15.78Z"/>
</svg>
