<svg xmlns="http://www.w3.org/2000/svg" width="24" height="24" fill="currentColor" viewBox="0 0 24 24">
  <path d="M8.33 10.248a5.026 5.026 0 0 1-5.015-5.015A5.026 5.026 0 0 1 8.331.216a5.026 5.026 0 0 1 5.016 5.016 5.026 5.026 0 0 1-5.016 5.015Zm0-8.406a3.389 3.389 0 0 0-3.39 3.39 3.389 3.389 0 0 0 3.39 3.391 3.389 3.389 0 0 0 3.392-3.39A3.389 3.389 0 0 0 8.33 1.841Zm9.458 18.655a2.799 2.799 0 0 1-1.744-.629 2.742 2.742 0 0 1-.964-2.08 2.708 2.708 0 0 1 5.417 0c0 .791-.347 1.539-.954 2.07a2.716 2.716 0 0 1-1.755.639Zm0-3.792c-.596 0-1.083.488-1.083 1.083 0 .314.14.618.39.834.38.315.997.326 1.398 0 .238-.205.379-.509.379-.823 0-.596-.488-1.083-1.084-1.083v-.011Z"/>
  <path d="M20.28 17.789a2.493 2.493 0 0 0-4.983 0c0 .726.318 1.425.889 1.915.46.369 1.029.576 1.602.576a2.5 2.5 0 0 0 1.615-.588 2.53 2.53 0 0 0 .877-1.903Zm-3.792 0c0-.716.585-1.3 1.3-1.3h.217v.03a1.303 1.303 0 0 1 1.084 1.28c0 .378-.17.741-.455.988l-.005.004c-.481.39-1.214.378-1.673-.002l-.003-.003a1.325 1.325 0 0 1-.465-.997ZM13.13 5.232A4.81 4.81 0 0 0 8.33.433a4.809 4.809 0 0 0-4.798 4.8 4.81 4.81 0 0 0 4.799 4.799 4.81 4.81 0 0 0 4.8-4.8Zm-1.625 0A3.173 3.173 0 0 0 8.33 2.058a3.172 3.172 0 0 0-3.173 3.174A3.173 3.173 0 0 0 8.33 8.407a3.173 3.173 0 0 0 3.174-3.175Zm5.417 12.557c0 .247.11.491.314.668a.922.922 0 0 0 1.114.001.88.88 0 0 0 .305-.66.87.87 0 0 0-.867-.866h-.126a.87.87 0 0 0-.74.857Zm3.791 0a2.96 2.96 0 0 1-1.027 2.231l-.003.003a2.934 2.934 0 0 1-1.895.69c-.68 0-1.345-.246-1.88-.676l-.005-.005a2.958 2.958 0 0 1-1.04-2.243 2.925 2.925 0 1 1 5.85 0ZM11.938 5.232A3.607 3.607 0 0 1 8.331 8.84a3.606 3.606 0 0 1-3.608-3.608 3.606 3.606 0 0 1 3.608-3.607 3.606 3.606 0 0 1 3.607 3.607Zm1.625 0a5.243 5.243 0 0 1-5.232 5.233 5.243 5.243 0 0 1-5.233-5.233A5.242 5.242 0 0 1 8.331 0a5.243 5.243 0 0 1 5.232 5.232Z"/>
  <path d="M18.406 23.508H17.17a1.3 1.3 0 0 1-1.246-.92c0-.033-.033-.109-.14-.109-.423.195-1.16.239-1.604-.206l-.878-.877a1.263 1.263 0 0 1-.206-1.538v-.12c-.639-.238-1.018-.747-1.018-1.321v-1.225c0-.584.38-1.083.932-1.256.087-.022.097-.141.097-.141a1.674 1.674 0 0 1-.173-.682c0-.347.13-.672.38-.921l.877-.867a1.282 1.282 0 0 1 1.354-.303c.032.01.065.021.097.043.022 0 .109.054.12.065.043 0 .13 0 .162-.108a1.29 1.29 0 0 1 1.246-.932h1.235c.574 0 1.072.38 1.246.932a.152.152 0 0 0 .14.108c.64-.336 1.246-.195 1.636.238l.845.835c.412.444.488 1.061.217 1.56 0 .054 0 .162.076.184.574.173.953.671.953 1.256v1.224c0 .585-.379 1.084-.931 1.257l-.087.076s-.022.076 0 .13c.086.12.162.368.162.607 0 .357-.13.671-.379.92l-.877.878c-.401.4-1.019.498-1.539.217-.173-.022-.195.065-.205.086a1.287 1.287 0 0 1-1.246.921l-.011-.01Zm-1.008-1.625h.78c.369-.812 1.398-1.235 2.232-.92l.563-.564c-.162-.455-.151-.899.033-1.31.173-.412.487-.737.888-.91v-.78c-.617-.271-1.029-.9-1.029-1.626a2 2 0 0 1 .108-.617l-.552-.553c-.184.076-.39.109-.618.109a1.765 1.765 0 0 1-1.614-1.04h-.78a1.777 1.777 0 0 1-2.231.931l-.553.553c.076.195.108.412.108.617 0 .715-.4 1.344-1.029 1.614v.78c.412.185.748.531.91.975.076.185.12.412.12.629 0 .216-.033.422-.109.617l.553.553c.877-.325 1.852.108 2.231.92l-.01.022Z"/>
  <path d="M11.863 18.416v-1.223c0-.652.403-1.21.997-1.434a1.757 1.757 0 0 1-.142-.647c0-.402.152-.783.443-1.074l.878-.867a1.499 1.499 0 0 1 1.575-.355l.064.023c.013.005.026.014.04.022h.006l.023.01a1.505 1.505 0 0 1 1.424-.998h1.235c.642 0 1.198.406 1.422.999.671-.292 1.322-.128 1.752.342l.846.834.007.007c.447.484.552 1.153.293 1.717a1.52 1.52 0 0 1 1.01 1.432v1.223c0 .653-.407 1.211-1.002 1.434.036.07.067.15.09.23.034.123.056.265.056.406 0 .414-.152.784-.442 1.074l-.878.877c-.449.45-1.13.57-1.718.292a1.5 1.5 0 0 1-1.425.996h-.09l-.011-.011H17.17a1.517 1.517 0 0 1-1.426-.997c-.225.08-.497.123-.77.104-.33-.023-.68-.137-.947-.405l-.878-.878a1.478 1.478 0 0 1-.302-1.682c-.607-.29-.986-.828-.986-1.45Zm8.785-2.643c0-.187.032-.378.08-.556l-.366-.365a1.942 1.942 0 0 1-.559.077c-.74 0-1.408-.407-1.749-1.04h-.513a1.991 1.991 0 0 1-2.303.96l-.367.366c.054.185.079.377.079.558 0 .747-.393 1.417-1.03 1.75v.512c.403.217.728.575.895 1.025l.058.166a1.978 1.978 0 0 1 0 1.103l.365.366a2.014 2.014 0 0 1 2.313.971h.496c.437-.79 1.436-1.2 2.303-.95l.378-.378c-.133-.457-.11-.91.078-1.334.175-.416.48-.754.872-.96v-.51a1.979 1.979 0 0 1-1.03-1.76Zm.434 0c0 .643.364 1.192.9 1.427l.129.057v1.064l-.131.056c-.347.15-.622.433-.775.795l-.001.005c-.16.356-.172.742-.027 1.149l.046.13-.096.097-.663.662-.13-.05c-.728-.274-1.637.1-1.958.808l-.058.127h-1.27l.118-.236a1.58 1.58 0 0 0-1.913-.72l-.13.049-.751-.751.05-.132c.065-.166.095-.345.095-.54 0-.19-.04-.39-.104-.545l-.002-.008a1.502 1.502 0 0 0-.796-.852l-.127-.057v-1.063l.13-.057c.545-.234.899-.781.899-1.415 0-.184-.03-.374-.094-.539l-.051-.132.75-.75.13.048a1.562 1.562 0 0 0 1.96-.818l.058-.127h1.06l.057.128c.247.55.797.912 1.416.912.207 0 .384-.03.536-.092l.133-.055.75.75-.043.126a1.77 1.77 0 0 0-.097.55Zm-7.93-.66c0 .174.052.37.154.593l.023.051-.005.058v.006l-.002.009a.587.587 0 0 1-.03.11.34.34 0 0 1-.217.202c-.464.146-.78.563-.78 1.05v1.224c0 .469.309.907.879 1.12l.14.052v.327l-.029.05c-.243.424-.172.934.171 1.277l.878.878c.175.176.416.262.672.28.256.017.51-.035.687-.117l.043-.02h.048c.11 0 .204.04.269.11a.328.328 0 0 1 .083.162 1.084 1.084 0 0 0 1.035.756h1.324l.008.008c.443-.033.816-.322.952-.764l.006-.018.008-.015c-.01.018.025-.075.104-.136a.388.388 0 0 1 .232-.074l.09.005.04.005.036.02c.436.235.95.153 1.283-.18l.877-.878c.208-.208.316-.467.316-.767 0-.098-.016-.2-.041-.29a.646.646 0 0 0-.08-.19l-.016-.021-.01-.026a.403.403 0 0 1-.023-.188.304.304 0 0 1 .01-.055c0-.006.002-.012.003-.017l.001-.005.001-.003V19.7l.018-.061.048-.042.087-.076.034-.03.043-.013c.465-.146.78-.563.78-1.05v-1.224a1.09 1.09 0 0 0-.8-1.05.317.317 0 0 1-.212-.233c-.018-.067-.017-.135-.017-.159v-.055l.027-.048c.225-.414.165-.931-.186-1.31l-.838-.826-.009-.01c-.321-.357-.819-.483-1.373-.192l-.048.026h-.053a.37.37 0 0 1-.347-.257l-.001-.004a1.094 1.094 0 0 0-1.04-.78h-1.234c-.488 0-.902.316-1.038.777a.356.356 0 0 1-.199.232c-.077.034-.153.032-.171.032h-.09l-.053-.053-.02-.012h-.022l-.055-.037a.21.21 0 0 0-.046-.018l-.006-.002a1.066 1.066 0 0 0-1.126.253h-.001l-.878.867a1.07 1.07 0 0 0-.314.767Z"/>
  <path d="M10.985 18.406v-.997c-3.39.412-7.507-.032-8.84-1.094-.195-.163-.303-.303-.303-.433 0-2.86 2.936-5.19 6.543-5.19 1.96 0 3.78.716 5.005 1.875l.032-.033a2.34 2.34 0 0 1 1.539-.682c-1.506-1.723-3.911-2.784-6.576-2.784-4.507 0-8.168 3.055-8.168 6.814 0 .444.162 1.105.92 1.711 1.365 1.073 4.355 1.582 7.28 1.582.91 0 1.81-.054 2.655-.152a2.297 2.297 0 0 1-.087-.617Z"/>
  <path d="M1.625 15.882c0-3.024 3.082-5.406 6.76-5.406 1.933 0 3.738.678 5.002 1.797a2.53 2.53 0 0 1 1.133-.578c-1.47-1.494-3.685-2.41-6.135-2.41-4.425 0-7.952 2.992-7.952 6.597 0 .384.138.98.838 1.54.643.505 1.692.893 2.965 1.152 1.267.258 2.73.384 4.182.384.816 0 1.623-.046 2.39-.126a2.438 2.438 0 0 1-.04-.426v-.757a22.94 22.94 0 0 1-5-.019 13.733 13.733 0 0 1-2.218-.43c-.637-.188-1.175-.425-1.54-.716l-.004-.002a1.516 1.516 0 0 1-.262-.27.57.57 0 0 1-.119-.33Zm.433 0c0 .003.002.027.038.078.036.05.095.111.184.186l.121.088c.301.205.734.391 1.272.55.612.18 1.345.32 2.146.415 1.603.19 3.462.199 5.14-.005l.242-.03v1.242c0 .195.03.381.08.56l.067.243-.252.03c-.853.098-1.76.152-2.678.152-1.474 0-2.968-.128-4.268-.392-1.295-.264-2.424-.668-3.146-1.235l-.002-.001C.188 17.111 0 16.385 0 15.881c0-3.913 3.797-7.03 8.385-7.03 2.72 0 5.188 1.083 6.74 2.858l.29.334-.442.025a2.12 2.12 0 0 0-1.398.62l-.032.031-.149.15-.153-.145c-1.18-1.118-2.945-1.815-4.856-1.815-3.537 0-6.327 2.276-6.327 4.973Z"/>
</svg>
