<svg xmlns="http://www.w3.org/2000/svg" width="16" height="20" fill="currentColor" viewBox="0 0 16 20">
  <path d="M15.498 5.779 10.341.499a.59.59 0 0 0-.418-.177H2.22C1.177.322.33 1.191.33 2.26v15.48c0 1.068.848 1.937 1.891 1.937h11.56c1.043 0 1.891-.869 1.891-1.937V6.206a.612.612 0 0 0-.173-.427Zm-4.984-3.392 3.14 3.215h-3.14V2.387Zm3.266 16.08H2.22a.72.72 0 0 1-.71-.726V2.26c0-.4.319-.727.71-.727h7.112v4.674c0 .334.265.605.59.605h4.568v10.93a.72.72 0 0 1-.71.727Zm-1.555-8.095a.598.598 0 0 1-.59.604h-7.27a.598.598 0 0 1-.59-.605c0-.334.264-.604.59-.604h7.27c.326 0 .59.27.59.604Zm0 4.127a.598.598 0 0 1-.59.605h-7.27a.598.598 0 0 1-.59-.604c0-.335.264-.605.59-.605h7.27c.326 0 .59.27.59.604Z"/>
  <path d="M0 17.741V2.26C0 1.026.983 0 2.22 0h7.703a.914.914 0 0 1 .655.276l5.158 5.28a.93.93 0 0 1 .264.65v11.535C16 18.974 15.017 20 13.78 20H2.22C.984 20 0 18.974 0 17.741Zm1.182 0V2.26c0-.566.453-1.05 1.039-1.05h7.44v4.997c0 .169.13.282.262.282h4.896v11.253c0 .566-.454 1.05-1.04 1.05H2.221c-.586 0-1.04-.484-1.04-1.05ZM11.897 14.5a.273.273 0 0 0-.263-.283H4.365a.273.273 0 0 0-.262.283c0 .168.13.282.262.282h7.27a.273.273 0 0 0 .262-.282Zm0-4.128a.273.273 0 0 0-.263-.283H4.365a.273.273 0 0 0-.262.283c0 .168.13.282.262.282h7.27a.274.274 0 0 0 .262-.282Zm2.528-4.447h-4.24v-4.34l4.24 4.34Zm-3.583-.646h2.041l-2.04-2.09v2.09Zm1.712 9.22c0 .5-.399.928-.92.928H4.365a.923.923 0 0 1-.919-.927c0-.5.399-.927.92-.928h7.268c.521 0 .92.429.92.928Zm0-4.127a.924.924 0 0 1-.92.927H4.365a.924.924 0 0 1-.919-.927c0-.5.399-.927.92-.928h7.268c.521 0 .92.429.92.928ZM.657 17.742c0 .902.715 1.613 1.564 1.613h11.558c.849 0 1.564-.711 1.564-1.614V6.206a.293.293 0 0 0-.082-.204L10.104.722a.26.26 0 0 0-.18-.077H2.221c-.849 0-1.564.711-1.564 1.614V17.74Zm1.182 0c0 .235.185.403.382.403h11.558a.395.395 0 0 0 .382-.404V7.134H9.923a.925.925 0 0 1-.92-.928V1.854H2.22a.395.395 0 0 0-.382.405V17.74Z"/>
</svg>
