<svg xmlns="http://www.w3.org/2000/svg" width="20" height="20" fill="currentColor" viewBox="0 0 20 20">
  <g clip-path="url(#a)">
    <path d="M10 12c2.206 0 4-1.794 4-4s-1.794-4-4-4-4 1.794-4 4 1.794 4 4 4Zm0-6c1.103 0 2 .897 2 2s-.897 2-2 2-2-.897-2-2 .897-2 2-2Z"/>
    <path d="M9.42 19.814a1 1 0 0 0 1.16 0C10.884 19.6 18.029 14.44 18 8c0-4.411-3.589-8-8-8-4.41 0-8 3.589-8 7.995-.029 6.445 7.116 11.604 7.42 11.82ZM10 2c3.309 0 6 2.69 6 6.005.02 4.438-4.388 8.423-6 9.73C8.389 16.427 3.98 12.441 4 8c0-3.31 2.691-6 6-6Z"/>
  </g>
  <defs>
    <clipPath id="a">
      <path d="M0 0h20v20H0z"/>
    </clipPath>
  </defs>
</svg>
