<svg xmlns="http://www.w3.org/2000/svg" width="20" height="20" fill="currentColor" viewBox="0 0 20 20">
  <path d="M16.916 2.547c-2.04-.34-3.917-1.375-4.855-1.961A3.88 3.88 0 0 0 10 0a3.88 3.88 0 0 0-2.061.586c-.938.586-2.816 1.621-4.855 1.96C1.877 2.749 1 3.72 1 4.857V9.57c0 1.558.469 3.076 1.394 4.514.724 1.124 1.726 2.198 2.98 3.193 2.109 1.673 4.196 2.545 4.284 2.582L10 20l.342-.141c.088-.037 2.175-.909 4.284-2.582 1.254-.995 2.256-2.07 2.98-3.194C18.53 12.647 19 11.129 19 9.57V4.855c0-1.136-.877-2.107-2.084-2.308Zm.402 7.023c0 2.322-1.263 4.507-3.753 6.493A18.854 18.854 0 0 1 10 18.276c-1.488-.703-7.318-3.771-7.318-8.706V4.855c0-.379.294-.703.699-.77 2.342-.39 4.45-1.547 5.497-2.203A2.12 2.12 0 0 1 10 1.563c.4 0 .787.11 1.121.32 1.048.655 3.155 1.812 5.498 2.202.405.068.699.391.699.77V9.57Z"/>
  <path d="M8.759 10.733 6.074 8.198 5 9.355 8.86 13 15 6.055 13.827 5 8.76 10.733Z"/>
</svg>
