<svg width="26" height="26" viewBox="0 0 26 26" fill="none" xmlns="http://www.w3.org/2000/svg">
<g clip-path="url(#clip0_21_2)">
<path d="M17.1641 13.5078C15.484 13.5078 14.1172 14.8746 14.1172 16.5547C14.1172 18.2347 15.484 19.6016 17.1641 19.6016C18.8441 19.6016 20.2109 18.2347 20.2109 16.5547C20.2109 14.8746 18.8441 13.5078 17.1641 13.5078ZM17.1641 17.5703C16.604 17.5703 16.1484 17.1147 16.1484 16.5547C16.1484 15.9947 16.604 15.5391 17.1641 15.5391C17.7241 15.5391 18.1797 15.9947 18.1797 16.5547C18.1797 17.1147 17.7241 17.5703 17.1641 17.5703ZM11.832 9.44531C11.832 7.76527 10.4652 6.39844 8.78516 6.39844C7.10511 6.39844 5.73828 7.76527 5.73828 9.44531C5.73828 11.1254 7.10511 12.4922 8.78516 12.4922C10.4652 12.4922 11.832 11.1254 11.832 9.44531ZM7.76953 9.44531C7.76953 8.8853 8.22514 8.42969 8.78516 8.42969C9.34517 8.42969 9.80078 8.8853 9.80078 9.44531C9.80078 10.0053 9.34517 10.4609 8.78516 10.4609C8.22514 10.4609 7.76953 10.0053 7.76953 9.44531Z" fill="#02642B"/>
<path d="M22.1924 3.80758C19.737 1.35225 16.4724 0 13 0C9.52758 0 6.263 1.35225 3.80758 3.80758C1.35225 6.263 0 9.52758 0 13C0 16.4724 1.35225 19.737 3.80758 22.1924C6.263 24.6477 9.52758 26 13 26C16.4724 26 19.737 24.6477 22.1924 22.1924C24.6477 19.737 26 16.4724 26 13C26 9.52758 24.6477 6.263 22.1924 3.80758ZM13 23.9688C6.9518 23.9688 2.03125 19.0482 2.03125 13C2.03125 6.9518 6.9518 2.03125 13 2.03125C19.0482 2.03125 23.9688 6.9518 23.9688 13C23.9688 19.0482 19.0482 23.9688 13 23.9688Z" fill="#02642B"/>
<path d="M15.1394 6.90625L8.55164 19.0938H10.8606L17.4484 6.90625H15.1394Z" fill="#02642B"/>
</g>
<defs>
<clipPath id="clip0_21_2">
<rect width="26" height="26" fill="white"/>
</clipPath>
</defs>
</svg>
