<svg xmlns="http://www.w3.org/2000/svg" width="19" height="19" fill="currentColor" viewBox="0 0 19 19">
  <path d="m17 12.677-3.581-1.433-1.062 1.77a1 1 0 0 1-1.3.383 12 12 0 0 1-5.453-5.455 1 1 0 0 1 .381-1.3l1.77-1.062L6.323 2H3a1 1 0 0 0-1 .98 15 15 0 0 0 14.02 14.019A.998.998 0 0 0 17 16v-3.323ZM19 16a3 3 0 0 1-3.06 2.998A17 17 0 0 1 0 3a3 3 0 0 1 3-3h4a1 1 0 0 1 .929.629l2 5a1 1 0 0 1-.414 1.228L7.842 7.86a9.996 9.996 0 0 0 3.297 3.297l1.004-1.672.05-.076a1 1 0 0 1 1.178-.338l5 2A1 1 0 0 1 19 12v4Z"/>
</svg>
