<svg xmlns="http://www.w3.org/2000/svg" width="53" height="60" fill="currentColor" viewBox="0 0 53 60">
  <path d="m52.879 17.526-3.006-8.26a5.279 5.279 0 0 0-6.76-3.15l-5.526 2.01c.01-.053.018-.107.026-.162.362-2.548-.705-5.009-2.854-6.58a7.078 7.078 0 0 0-6.957-.827 7.074 7.074 0 0 0-4.306 5.516l-.79 5.093-4.082-3.61a7.077 7.077 0 0 0-6.851-1.463c-5.291 1.653-6.74 8.432-2.636 12.115.073.065.148.13.225.192l-5.89 2.144A5.27 5.27 0 0 0 .32 27.303l3.006 8.259 3.743-1.354v20.519C7.07 57.634 9.411 60 12.32 60h35.155a5.28 5.28 0 0 0 5.274-5.273V28.126H23.755l29.124-10.6Zm-8.563-8.107a1.76 1.76 0 0 1 2.253 1.05l1.804 4.956-16.518 6.011-2.404-6.607 14.865-5.41ZM26.972 6.603a3.588 3.588 0 0 1 2.183-2.801 3.589 3.589 0 0 1 3.528.418c2.362 1.728 1.796 5.038-.898 6.019l-3.537 1.287-2.162.787.886-5.71Zm-.825 9.429 2.404 6.607-3.303 1.202-2.405-6.607 3.304-1.202ZM12.82 9.448a3.589 3.589 0 0 1 3.474.742l4.556 4.028-5.715 2.08a3.564 3.564 0 0 1-3.651-.707c-2.115-1.897-1.309-5.316 1.336-6.143ZM5.427 31.056 3.623 26.1a1.757 1.757 0 0 1 1.05-2.253l14.867-5.41 2.404 6.607-16.517 6.012Zm29.743.585h14.085v23.086c0 .969-.812 1.758-1.78 1.758H35.17V31.64Zm-7.031 0h3.539v24.843h-3.54V31.641Zm-3.492 0v24.843H12.319a1.76 1.76 0 0 1-1.758-1.757V32.928l3.535-1.287h10.55Z"/>
</svg>
